<svg width="10" height="11" viewBox="0 0 10 11" fill="none" xmlns="http://www.w3.org/2000/svg">
<path d="M7.67508 5.5C7.67508 6.20967 7.39289 6.88979 6.89136 7.39138C6.38981 7.89293 5.70967 8.1751 4.99998 8.1751C4.29028 8.1751 3.61018 7.89291 3.1086 7.39138C2.60705 6.88983 2.32488 6.20969 2.32488 5.5C2.32488 4.79031 2.60706 4.1102 3.1086 3.60862C3.61015 3.10707 4.29028 2.8249 4.99998 2.8249C5.70918 2.82631 6.38881 3.10849 6.88992 3.61004C7.39146 4.11112 7.67366 4.7908 7.67508 5.5ZM5 8.76989C4.90766 8.76849 4.8186 8.80411 4.75298 8.86926C4.68689 8.93395 4.64985 9.02254 4.64985 9.11488V10.1499C4.64985 10.343 4.80688 10.5 5 10.5C5.19313 10.5 5.35015 10.343 5.35015 10.1499V9.11488C5.35015 9.02254 5.31312 8.93395 5.24703 8.86926C5.18141 8.80411 5.09234 8.76849 5 8.76989ZM2.19509 7.80992L1.46528 8.53974C1.32794 8.67848 1.32794 8.9016 1.46528 9.03988C1.52902 9.10691 1.61761 9.14488 1.70996 9.14488C1.80418 9.14488 1.89418 9.10691 1.96026 9.03988L2.69008 8.31007C2.82835 8.1718 2.82835 7.94821 2.69008 7.80992C2.5518 7.67164 2.32822 7.67165 2.18993 7.80992H2.19509ZM1.73011 5.5C1.73151 5.40766 1.69589 5.3186 1.63074 5.25298C1.56605 5.18688 1.47746 5.14985 1.38512 5.14985H0.350149C0.157027 5.14985 0 5.30688 0 5.5C0 5.69312 0.157027 5.85015 0.350149 5.85015H1.38512C1.47746 5.85015 1.56605 5.81312 1.63074 5.74703C1.69589 5.68141 1.73151 5.59234 1.73011 5.5ZM2.19509 3.19007C2.33336 3.32741 2.55648 3.32741 2.69524 3.19007C2.83257 3.0518 2.83257 2.82868 2.69524 2.68993L1.96026 1.96526C1.82199 1.82699 1.5984 1.82699 1.46012 1.96526C1.32184 2.10307 1.32184 2.32712 1.46012 2.46494L2.19509 3.19007ZM5 2.23011C5.09234 2.23151 5.1814 2.19589 5.24703 2.13074C5.31312 2.06605 5.35015 1.97746 5.35015 1.88512V0.850149C5.35015 0.657027 5.19312 0.5 5 0.5C4.80688 0.5 4.64985 0.657027 4.64985 0.850149V1.88512C4.64985 1.97746 4.68688 2.06605 4.75297 2.13074C4.8186 2.19589 4.90766 2.23151 5 2.23011ZM7.55976 3.28991C7.65163 3.28944 7.73929 3.25382 7.80491 3.19007L8.53473 2.46026C8.673 2.32198 8.673 2.09839 8.53473 1.96011C8.39692 1.82184 8.17287 1.82184 8.03505 1.96011L7.30992 2.69509C7.17258 2.83336 7.17258 3.05648 7.30992 3.19523C7.37835 3.25664 7.46789 3.29085 7.55976 3.28991ZM9.64985 5.14985H8.62004C8.42645 5.14985 8.2699 5.30688 8.2699 5.5C8.2699 5.69312 8.42645 5.85015 8.62004 5.85015H9.64985C9.84297 5.85015 10 5.69312 10 5.5C10 5.30688 9.84297 5.14985 9.64985 5.14985ZM7.80491 7.80992C7.66664 7.67165 7.44305 7.67165 7.30477 7.80992C7.16696 7.9482 7.16696 8.17178 7.30477 8.31007L8.03458 9.03988H8.03505C8.10068 9.10691 8.19068 9.14488 8.28488 9.14488C8.37723 9.14488 8.46581 9.10691 8.53004 9.03988C8.66737 8.90161 8.66737 8.67849 8.53004 8.53974L7.80491 7.80992Z" fill="black"/>
</svg>
