<svg width="20" height="21" viewBox="0 0 20 21" fill="none" xmlns="http://www.w3.org/2000/svg">
<path d="M13.4268 13.6479V8.64795H8.42676V8.33595C8.42676 7.81895 8.84676 7.39795 9.36476 7.39795H10.3018V5.52295H9.36476C8.61895 5.52374 7.90391 5.82037 7.37654 6.34773C6.84918 6.8751 6.55255 7.59014 6.55176 8.33595V8.64795H5.30176V10.5229H6.55176V13.6479H5.30176V15.5229H9.67676V13.6479H8.42676V10.5229H11.5698V13.6479H10.3018V15.5229H14.6768V13.6479H13.4268Z" fill="#2F2F2F"/>
<path d="M12.4024 7.47173C12.9552 7.47173 13.4034 7.02356 13.4034 6.47073C13.4034 5.91789 12.9552 5.46973 12.4024 5.46973C11.8495 5.46973 11.4014 5.91789 11.4014 6.47073C11.4014 7.02356 11.8495 7.47173 12.4024 7.47173Z" fill="#2F2F2F"/>
<path d="M4 2.5C3.46957 2.5 2.96086 2.71071 2.58579 3.08579C2.21071 3.46086 2 3.96957 2 4.5V16.5C2 17.0304 2.21071 17.5391 2.58579 17.9142C2.96086 18.2893 3.46957 18.5 4 18.5H16C16.5304 18.5 17.0391 18.2893 17.4142 17.9142C17.7893 17.5391 18 17.0304 18 16.5V4.5C18 3.96957 17.7893 3.46086 17.4142 3.08579C17.0391 2.71071 16.5304 2.5 16 2.5H4ZM4 0.5H16C17.0609 0.5 18.0783 0.921427 18.8284 1.67157C19.5786 2.42172 20 3.43913 20 4.5V16.5C20 17.5609 19.5786 18.5783 18.8284 19.3284C18.0783 20.0786 17.0609 20.5 16 20.5H4C2.93913 20.5 1.92172 20.0786 1.17157 19.3284C0.421427 18.5783 0 17.5609 0 16.5V4.5C0 3.43913 0.421427 2.42172 1.17157 1.67157C1.92172 0.921427 2.93913 0.5 4 0.5Z" fill="#2F2F2F"/>
</svg>
