<svg width="10" height="11" viewBox="0 0 10 11" fill="none" xmlns="http://www.w3.org/2000/svg">
<path d="M9.77127 6.73571C9.9424 6.98243 9.96731 7.30246 9.83615 7.57268C9.58275 8.09948 9.2438 8.58024 8.8334 8.99613C7.86215 9.96469 6.54436 10.5056 5.17262 10.5C3.80269 10.4995 2.48871 9.95576 1.51942 8.98867C0.549577 8.02105 0.00326437 6.70852 1.49478e-05 5.33908C-0.00327576 3.96964 0.53688 2.65482 1.50197 1.68287C1.91802 1.27213 2.39942 0.933301 2.92642 0.680009C3.19674 0.549369 3.51688 0.574271 3.76369 0.745331C4.01943 0.926728 4.15906 1.23031 4.12991 1.54236C4.01333 2.85634 4.48485 4.15432 5.41801 5.08669C6.35119 6.01952 7.64965 6.49089 8.96362 6.3748C9.27859 6.33955 9.58746 6.47771 9.77127 6.73571ZM7.26416 2.53487L7.61016 2.7205H7.60969C7.68585 2.76609 7.74932 2.83 7.79539 2.90567L7.98109 3.25154C8.07417 3.39017 8.23025 3.47336 8.39714 3.47336C8.56403 3.47336 8.72011 3.39018 8.81318 3.25154L8.99888 2.90567C9.04448 2.82813 9.1103 2.76374 9.18927 2.7205L9.52541 2.53487C9.66409 2.44182 9.74731 2.2858 9.74731 2.11897C9.74731 1.95168 9.6641 1.79565 9.52541 1.70261L9.18458 1.51698V1.51745C9.10466 1.47233 9.03885 1.40654 8.99372 1.32665L8.80849 0.985947C8.71541 0.847319 8.55933 0.764128 8.39197 0.764128C8.22509 0.764128 8.06901 0.847308 7.97593 0.985947L7.79023 1.32665C7.74698 1.40607 7.68257 1.47186 7.605 1.51745L7.259 1.70308V1.70261C7.12032 1.79566 7.0371 1.95168 7.0371 2.11897C7.0371 2.2858 7.12031 2.44183 7.259 2.53487H7.26416ZM9.90666 4.74549L9.73601 4.65009C9.69652 4.62941 9.66455 4.59558 9.64575 4.55516L9.5254 4.38457C9.48215 4.31032 9.40317 4.26473 9.31713 4.26473C9.23157 4.26473 9.15212 4.31032 9.10934 4.38457L9.01908 4.55516C8.99651 4.59464 8.9636 4.628 8.92365 4.65009L8.75299 4.74549C8.67636 4.78637 8.62794 4.86626 8.62794 4.95368C8.62794 5.04062 8.67636 5.12051 8.75299 5.1614L8.92365 5.25163C8.96219 5.2756 8.9951 5.30849 9.01908 5.34703L9.10934 5.51762C9.15353 5.59281 9.23627 5.63699 9.32324 5.63276C9.41068 5.62853 9.48825 5.57636 9.52539 5.49741L9.62082 5.32682C9.64104 5.28734 9.67253 5.25445 9.71108 5.23189L9.88174 5.14166H9.88127C9.95084 5.10172 9.9955 5.02888 9.99974 4.94898C10.0035 4.86909 9.96683 4.79202 9.90148 4.74549L9.90666 4.74549ZM5.01231 1.3821L5.16274 1.48737C5.20129 1.51087 5.2342 1.54376 5.25818 1.5823L5.34844 1.75289C5.38934 1.82996 5.46926 1.8779 5.55623 1.8779C5.64367 1.8779 5.72359 1.82997 5.7645 1.75289L5.85993 1.5823C5.88203 1.54282 5.9154 1.50946 5.95489 1.48737L6.12555 1.39714C6.19983 1.3539 6.24543 1.27449 6.24543 1.18895C6.24543 1.10341 6.19983 1.024 6.12555 0.980761L5.95489 0.885363V0.885833C5.91446 0.867035 5.88062 0.835078 5.85993 0.795603L5.7645 0.62501C5.7236 0.547939 5.64368 0.5 5.55623 0.5C5.46926 0.5 5.38935 0.547935 5.34844 0.62501L5.25818 0.795603C5.23561 0.834138 5.20223 0.865154 5.16274 0.885833L5.01231 0.985931C4.94508 1.02917 4.90418 1.10389 4.90418 1.18377C4.90418 1.26413 4.94508 1.33841 5.01231 1.3821Z" fill="white"/>
</svg>
