<svg width="20" height="21" viewBox="0 0 20 21" fill="none" xmlns="http://www.w3.org/2000/svg">
<path d="M4 2.5C3.46957 2.5 2.96086 2.71071 2.58579 3.08579C2.21071 3.46086 2 3.96957 2 4.5V16.5C2 17.0304 2.21071 17.5391 2.58579 17.9142C2.96086 18.2893 3.46957 18.5 4 18.5H16C16.5304 18.5 17.0391 18.2893 17.4142 17.9142C17.7893 17.5391 18 17.0304 18 16.5V4.5C18 3.96957 17.7893 3.46086 17.4142 3.08579C17.0391 2.71071 16.5304 2.5 16 2.5H4ZM4 0.5H16C17.0609 0.5 18.0783 0.921427 18.8284 1.67157C19.5786 2.42172 20 3.43913 20 4.5V16.5C20 17.5609 19.5786 18.5783 18.8284 19.3284C18.0783 20.0786 17.0609 20.5 16 20.5H4C2.93913 20.5 1.92172 20.0786 1.17157 19.3284C0.421427 18.5783 0 17.5609 0 16.5V4.5C0 3.43913 0.421427 2.42172 1.17157 1.67157C1.92172 0.921427 2.93913 0.5 4 0.5Z" fill="#2F2F2F"/>
<path d="M13.0264 11.7528C12.5164 11.7528 12.0364 11.5368 11.6044 11.1858L11.7094 10.6878L11.7124 10.6698C11.8084 10.1418 12.1054 9.25379 13.0264 9.25379C13.7164 9.25379 14.2774 9.81479 14.2774 10.5048C14.2774 11.1948 13.7164 11.7528 13.0264 11.7528ZM13.0264 7.98778C11.8504 7.98778 10.9414 8.74979 10.5694 10.0068C10.0054 9.15779 9.57643 8.14078 9.32743 7.28278H8.06143V10.5738C8.06143 11.2248 7.53343 11.7528 6.88243 11.7528C6.23143 11.7528 5.70343 11.2248 5.70343 10.5738V7.27979H4.44043V10.5708C4.44043 11.9178 5.53543 13.0248 6.88243 13.0248C8.22943 13.0248 9.32443 11.9178 9.32443 10.5708V10.0188C9.57043 10.5318 9.87043 11.0508 10.2364 11.5068L9.46243 15.1488H10.7554L11.3164 12.5088C11.8084 12.8238 12.3724 13.0218 13.0204 13.0218C14.4064 13.0218 15.5344 11.8878 15.5344 10.4988C15.5374 9.11579 14.4124 7.98778 13.0264 7.98778Z" fill="#2F2F2F"/>
</svg>
