<svg width="277" height="34" viewBox="0 0 277 34" fill="none" xmlns="http://www.w3.org/2000/svg">
<path d="M42.904 3.36C42.872 3.392 42.792 3.4 42.664 3.384C42.552 3.368 42.392 3.384 42.184 3.432C41.992 3.48 41.752 3.576 41.464 3.72C41.192 3.864 40.872 4.104 40.504 4.44C40.024 4.856 39.488 5.472 38.896 6.288C38.32 7.104 37.72 8.04 37.096 9.096C36.472 10.152 35.84 11.288 35.2 12.504C34.576 13.72 33.968 14.928 33.376 16.128C32 18.96 30.592 22.048 29.152 25.392C28.976 25.408 28.752 25.408 28.48 25.392C28.208 25.376 27.92 25.328 27.616 25.248C27.312 25.168 27 25.048 26.68 24.888C26.376 24.744 26.096 24.544 25.84 24.288C25.776 24.272 25.632 24.192 25.408 24.048C25.2 23.904 24.96 23.728 24.688 23.52C24.416 23.312 24.128 23.072 23.824 22.8C23.52 22.544 23.24 22.288 22.984 22.032C22.728 21.792 22.512 21.552 22.336 21.312C22.176 21.088 22.096 20.904 22.096 20.76C22.096 20.616 22.144 20.352 22.24 19.968C22.336 19.584 22.456 19.128 22.6 18.6C22.76 18.056 22.936 17.464 23.128 16.824C23.32 16.184 23.52 15.544 23.728 14.904C24.208 13.4 24.76 11.728 25.384 9.888C24.92 10.416 24.392 11.128 23.8 12.024C23.224 12.904 22.624 13.856 22 14.88C21.376 15.888 20.76 16.912 20.152 17.952C19.544 18.976 18.992 19.912 18.496 20.76C18 21.592 17.576 22.272 17.224 22.8C16.888 23.328 16.672 23.592 16.576 23.592H16.528C16.112 23.592 15.616 23.4 15.04 23.016C14.48 22.632 13.936 22.184 13.408 21.672C12.896 21.16 12.456 20.656 12.088 20.16C11.72 19.664 11.536 19.296 11.536 19.056C11.536 18.4 11.72 17.552 12.088 16.512C12.456 15.456 12.896 14.312 13.408 13.08C13.92 11.832 14.44 10.536 14.968 9.192C15.496 7.848 15.928 6.536 16.264 5.256C16.104 5.112 15.912 5.016 15.688 4.968C15.48 4.904 15.264 4.872 15.04 4.872C14.672 4.872 14.112 5.008 13.36 5.28C12.624 5.552 11.8 5.896 10.888 6.312C9.976 6.728 9.04 7.192 8.08 7.704C7.136 8.216 6.272 8.72 5.488 9.216C4.704 9.696 4.056 10.144 3.544 10.56C3.048 10.96 2.8 11.256 2.8 11.448C2.8 11.848 2.856 12.136 2.968 12.312C3.08 12.488 3.16 12.616 3.208 12.696C3.24 12.776 3.152 12.824 2.944 12.84C2.752 12.856 2.512 12.848 2.224 12.816C1.952 12.784 1.68 12.736 1.408 12.672C1.136 12.592 0.944 12.504 0.832 12.408C0.672 12.248 0.56 11.984 0.496 11.616C0.416 11.232 0.384 10.808 0.4 10.344C0.4 9.88 0.44 9.392 0.52 8.88C0.584 8.368 0.68 7.896 0.808 7.464C0.888 7.192 1.24 6.856 1.864 6.456C2.488 6.056 3.256 5.64 4.168 5.208C5.096 4.776 6.104 4.352 7.192 3.936C8.28 3.504 9.328 3.12 10.336 2.784C11.36 2.432 12.28 2.152 13.096 1.944C13.928 1.736 14.536 1.632 14.92 1.632C15.16 1.632 15.4 1.68 15.64 1.776C15.88 1.856 16.112 1.968 16.336 2.112C16.56 2.256 16.76 2.416 16.936 2.592C17.128 2.768 17.288 2.944 17.416 3.12C17.544 3.216 17.816 3.392 18.232 3.648C18.648 3.888 19.08 4.16 19.528 4.464C19.992 4.768 20.4 5.08 20.752 5.4C21.12 5.704 21.304 5.96 21.304 6.168C21.304 6.312 21.184 6.664 20.944 7.224C20.704 7.768 20.4 8.44 20.032 9.24C19.664 10.04 19.256 10.936 18.808 11.928C18.36 12.904 17.928 13.896 17.512 14.904C17.112 15.896 16.752 16.864 16.432 17.808C16.112 18.752 15.888 19.592 15.76 20.328C15.968 20.104 16.248 19.744 16.6 19.248C16.952 18.736 17.344 18.144 17.776 17.472C18.208 16.8 18.672 16.072 19.168 15.288C19.664 14.488 20.168 13.696 20.68 12.912C21.192 12.128 21.696 11.376 22.192 10.656C22.688 9.92 23.152 9.272 23.584 8.712C24.016 8.136 24.4 7.68 24.736 7.344C25.072 7.008 25.344 6.84 25.552 6.84C25.808 6.84 26.168 6.96 26.632 7.2C27.096 7.44 27.544 7.736 27.976 8.088C28.408 8.424 28.768 8.776 29.056 9.144C29.36 9.512 29.48 9.824 29.416 10.08C29.368 10.256 29.264 10.616 29.104 11.16C28.96 11.688 28.776 12.312 28.552 13.032C28.344 13.752 28.112 14.536 27.856 15.384C27.6 16.216 27.352 17.032 27.112 17.832C26.872 18.616 26.648 19.352 26.44 20.04C26.232 20.712 26.072 21.24 25.96 21.624C27.016 19.416 28.072 17.24 29.128 15.096C30.184 12.936 31.208 10.928 32.2 9.072C33.208 7.2 34.16 5.536 35.056 4.08C35.968 2.608 36.808 1.456 37.576 0.623999C37.864 0.303999 38.208 0.135999 38.608 0.119998C39.024 0.103999 39.448 0.175999 39.88 0.335999C40.328 0.495999 40.76 0.728 41.176 1.032C41.592 1.32 41.944 1.616 42.232 1.92C42.536 2.224 42.752 2.512 42.88 2.784C43.024 3.056 43.032 3.248 42.904 3.36ZM51.5547 12.624C51.7947 12.368 52.0107 12.224 52.2027 12.192C52.3627 12.16 52.5067 12.24 52.6347 12.432C52.7787 12.624 52.8507 13.032 52.8507 13.656C51.6827 15.176 50.6187 16.528 49.6587 17.712C49.2427 18.224 48.8347 18.72 48.4347 19.2C48.0347 19.68 47.6587 20.112 47.3067 20.496C46.9707 20.864 46.6747 21.16 46.4187 21.384C46.1787 21.624 46.0107 21.744 45.9147 21.744C45.7387 21.744 45.5547 21.712 45.3627 21.648C45.1867 21.584 45.0267 21.488 44.8827 21.36C44.6107 21.232 44.3147 21.08 43.9947 20.904C43.6747 20.728 43.3787 20.552 43.1067 20.376C42.8507 20.2 42.6267 20.032 42.4347 19.872C42.2587 19.712 42.1707 19.576 42.1707 19.464C42.1227 19.112 42.1387 18.72 42.2187 18.288C42.2987 17.856 42.4187 17.408 42.5787 16.944C42.7387 16.464 42.9307 15.976 43.1547 15.48C43.3787 14.984 43.6107 14.496 43.8507 14.016C43.3867 14.624 42.9067 15.272 42.4107 15.96C41.9147 16.648 41.4587 17.336 41.0427 18.024C40.6267 18.712 40.2667 19.384 39.9627 20.04C39.6587 20.68 39.4587 21.256 39.3627 21.768C39.2507 21.768 38.9787 21.664 38.5467 21.456C38.1147 21.248 37.6587 21.008 37.1787 20.736C36.6987 20.448 36.2667 20.168 35.8827 19.896C35.4987 19.624 35.2987 19.424 35.2827 19.296C35.2187 18.736 35.3067 18.008 35.5467 17.112C35.7707 16.2 36.0667 15.224 36.4347 14.184C36.8027 13.128 37.2107 12.056 37.6587 10.968C38.1067 9.864 38.5227 8.84 38.9067 7.896C39.2907 6.952 39.6027 6.136 39.8427 5.448C40.0987 4.76 40.2107 4.288 40.1787 4.032C40.3387 4.032 40.6187 4.12 41.0187 4.296C41.4347 4.472 41.8587 4.688 42.2907 4.944C42.7227 5.184 43.1067 5.44 43.4427 5.712C43.7947 5.984 43.9787 6.224 43.9947 6.432C44.0107 6.56 43.8827 6.944 43.6107 7.584C43.3387 8.208 43.0027 8.992 42.6027 9.936C42.2027 10.864 41.7787 11.896 41.3307 13.032C40.8827 14.152 40.4907 15.272 40.1547 16.392C40.7467 15.432 41.3947 14.512 42.0987 13.632C42.8027 12.752 43.4587 11.984 44.0667 11.328C44.6747 10.656 45.1787 10.12 45.5787 9.72C45.9947 9.32 46.2027 9.12 46.2027 9.12C46.3627 9.12 46.6187 9.2 46.9707 9.36C47.3387 9.52 47.7067 9.72 48.0747 9.96C48.4587 10.184 48.7947 10.432 49.0827 10.704C49.3707 10.96 49.5307 11.184 49.5627 11.376C49.5787 11.552 49.4347 11.912 49.1307 12.456C48.8267 13 48.4667 13.656 48.0507 14.424C47.6507 15.192 47.2507 16.032 46.8507 16.944C46.4507 17.84 46.1627 18.72 45.9867 19.584C46.4827 19.072 47.0507 18.424 47.6907 17.64C48.3307 16.856 48.9387 16.088 49.5147 15.336C50.1867 14.456 50.8667 13.552 51.5547 12.624ZM64.7944 12.912C64.9384 13.184 65.0424 13.464 65.1064 13.752C65.1544 14.008 65.1624 14.288 65.1304 14.592C65.1144 14.88 65.0104 15.16 64.8184 15.432C64.4824 15.88 64.0424 16.296 63.4984 16.68C62.9704 17.064 62.4264 17.392 61.8664 17.664C61.1304 18.016 60.3944 18.232 59.6584 18.312C59.3384 18.824 58.9784 19.336 58.5784 19.848C58.1944 20.36 57.7704 20.816 57.3064 21.216C56.8584 21.616 56.3864 21.936 55.8904 22.176C55.3944 22.432 54.8904 22.56 54.3784 22.56C53.9784 22.56 53.5224 22.416 53.0104 22.128C52.5144 21.856 52.0344 21.52 51.5704 21.12C51.1224 20.72 50.7384 20.304 50.4184 19.872C50.0984 19.424 49.9224 19.032 49.8904 18.696C49.7944 17.704 49.8904 16.704 50.1784 15.696C50.4504 14.688 50.8344 13.776 51.3304 12.96C51.8264 12.144 52.3944 11.48 53.0344 10.968C53.6744 10.44 54.2984 10.176 54.9064 10.176C55.1624 10.176 55.4824 10.272 55.8664 10.464C56.2664 10.64 56.6664 10.856 57.0664 11.112C57.4664 11.352 57.8264 11.6 58.1464 11.856C58.4824 12.096 58.7144 12.272 58.8424 12.384C59.0824 12.432 59.3144 12.504 59.5384 12.6C59.7784 12.696 59.9944 12.84 60.1864 13.032C60.3944 13.224 60.5704 13.472 60.7144 13.776C60.8584 14.064 60.9544 14.432 61.0024 14.88C61.0344 15.296 60.8504 15.944 60.4504 16.824C60.6264 16.776 60.7784 16.72 60.9064 16.656C61.0504 16.592 61.1864 16.536 61.3144 16.488C61.6664 16.312 62.0104 16.088 62.3464 15.816C62.6824 15.544 63.0024 15.248 63.3064 14.928C63.6104 14.608 63.8824 14.28 64.1224 13.944C64.3784 13.592 64.6024 13.248 64.7944 12.912ZM58.6504 13.992C58.6024 13.624 58.4744 13.368 58.2664 13.224C58.0744 13.08 57.8744 12.992 57.6664 12.96C57.2344 13.2 56.7944 13.576 56.3464 14.088C56.3144 14.168 56.2984 14.248 56.2984 14.328C56.2984 14.392 56.2984 14.464 56.2984 14.544C56.3144 14.752 56.3704 14.968 56.4664 15.192C56.5784 15.4 56.7064 15.6 56.8504 15.792C56.9944 15.968 57.1464 16.136 57.3064 16.296C57.4824 16.44 57.6504 16.56 57.8104 16.656C58.0824 16.08 58.2984 15.552 58.4584 15.072C58.6184 14.592 58.6824 14.232 58.6504 13.992ZM53.9704 21.144C54.2264 21.144 54.4904 21.056 54.7624 20.88C55.0504 20.688 55.3304 20.44 55.6024 20.136C55.8904 19.832 56.1704 19.48 56.4424 19.08C56.7144 18.68 56.9704 18.264 57.2104 17.832C56.9864 17.704 56.7624 17.544 56.5384 17.352C56.3144 17.16 56.1064 16.952 55.9144 16.728C55.7864 16.568 55.6584 16.392 55.5304 16.2C55.4024 15.992 55.2904 15.768 55.1944 15.528C54.6824 16.296 54.2744 17.112 53.9704 17.976C53.6824 18.84 53.5784 19.656 53.6584 20.424C53.6584 20.472 53.6584 20.536 53.6584 20.616C53.6744 20.696 53.6904 20.776 53.7064 20.856C53.7384 20.936 53.7704 21 53.8024 21.048C53.8504 21.112 53.9064 21.144 53.9704 21.144ZM69.2277 9C69.1157 9 68.8597 8.936 68.4597 8.808C68.0757 8.664 67.6757 8.48 67.2597 8.256C66.8437 8.032 66.4677 7.784 66.1317 7.512C65.7957 7.224 65.6277 6.944 65.6277 6.672C65.6277 6.352 65.7157 5.992 65.8917 5.592C66.0677 5.176 66.2597 4.776 66.4677 4.392C66.6917 4.008 66.8917 3.672 67.0677 3.384C67.2437 3.08 67.3317 2.872 67.3317 2.76C67.3797 2.76 67.4997 2.808 67.6917 2.904C67.8997 2.984 68.1317 3.096 68.3877 3.24C68.6597 3.368 68.9397 3.52 69.2277 3.696C69.5157 3.872 69.7717 4.056 69.9957 4.248C70.2197 4.424 70.3957 4.6 70.5237 4.776C70.6517 4.952 70.6837 5.104 70.6197 5.232C70.4917 5.52 70.3477 5.848 70.1877 6.216C70.0277 6.568 69.8757 6.92 69.7317 7.272C69.5877 7.624 69.4677 7.96 69.3717 8.28C69.2757 8.584 69.2277 8.824 69.2277 9ZM70.8357 12.768C70.9957 12.544 71.1397 12.432 71.2677 12.432C71.3797 12.432 71.4757 12.544 71.5557 12.768C71.6517 12.976 71.6997 13.408 71.6997 14.064C70.7237 15.584 69.8437 16.944 69.0597 18.144C68.7237 18.656 68.3877 19.16 68.0517 19.656C67.7317 20.136 67.4357 20.568 67.1637 20.952C66.8917 21.336 66.6597 21.64 66.4677 21.864C66.2917 22.104 66.1797 22.224 66.1317 22.224C66.0037 22.224 65.8757 22.192 65.7477 22.128C65.6357 22.064 65.5157 21.992 65.3877 21.912C65.1637 21.832 64.8517 21.68 64.4517 21.456C64.0677 21.232 63.6837 20.976 63.2997 20.688C62.9157 20.4 62.5877 20.104 62.3157 19.8C62.0277 19.496 61.8837 19.224 61.8837 18.984C61.8837 18.52 61.9637 17.96 62.1237 17.304C62.2837 16.648 62.4837 15.968 62.7237 15.264C62.9637 14.56 63.2277 13.864 63.5157 13.176C63.8037 12.472 64.0677 11.84 64.3077 11.28C64.5477 10.704 64.7477 10.232 64.9077 9.864C65.0677 9.48 65.1477 9.256 65.1477 9.192C65.1957 9.192 65.3157 9.24 65.5077 9.336C65.7157 9.416 65.9477 9.528 66.2037 9.672C66.4757 9.8 66.7557 9.952 67.0437 10.128C67.3317 10.304 67.5877 10.488 67.8117 10.68C68.0357 10.856 68.2117 11.032 68.3397 11.208C68.4677 11.384 68.4997 11.536 68.4357 11.664C68.3397 11.888 68.1637 12.28 67.9077 12.84C67.6517 13.384 67.3797 14.032 67.0917 14.784C66.8037 15.52 66.5237 16.312 66.2517 17.16C65.9957 18.008 65.8037 18.832 65.6757 19.632L70.8357 12.768ZM73.8411 9.504C74.4971 9.504 75.0011 9.64 75.3531 9.912C75.7051 10.168 75.9531 10.472 76.0971 10.824C76.2571 11.16 76.3451 11.496 76.3611 11.832C76.3771 12.152 76.3851 12.368 76.3851 12.48C76.3851 12.592 76.2731 12.688 76.0491 12.768C75.8251 12.848 75.5771 12.976 75.3051 13.152C75.0331 13.328 74.7851 13.592 74.5611 13.944C74.3371 14.28 74.2251 14.776 74.2251 15.432C74.2251 15.832 74.2971 16.24 74.4411 16.656C74.5851 17.072 74.7451 17.496 74.9211 17.928C75.1131 18.344 75.2811 18.768 75.4251 19.2C75.5691 19.632 75.6411 20.064 75.6411 20.496C75.6411 20.928 75.5211 21.392 75.2811 21.888C75.0571 22.4 74.7131 22.872 74.2491 23.304C73.7851 23.736 73.1931 24.096 72.4731 24.384C71.7531 24.672 70.9051 24.816 69.9291 24.816C69.2891 24.816 68.6811 24.728 68.1051 24.552C67.5131 24.376 66.9931 24.136 66.5451 23.832C66.0971 23.544 65.7451 23.208 65.4891 22.824C65.2171 22.456 65.0811 22.064 65.0811 21.648C65.0811 21.248 65.2411 20.928 65.5611 20.688C65.8651 20.448 66.2171 20.28 66.6171 20.184C67.0171 20.072 67.4011 20.024 67.7691 20.04C68.1211 20.056 68.3371 20.104 68.4171 20.184C68.4971 20.264 68.5131 20.4 68.4651 20.592C68.4011 20.784 68.3451 20.976 68.2971 21.168C68.2331 21.36 68.2251 21.528 68.2731 21.672C68.3051 21.816 68.4571 21.888 68.7291 21.888C69.0011 21.888 69.2811 21.848 69.5691 21.768C69.8411 21.704 70.0891 21.6 70.3131 21.456C70.5371 21.312 70.7211 21.128 70.8651 20.904C71.0091 20.68 71.0811 20.424 71.0811 20.136C71.0811 19.848 71.0411 19.496 70.9611 19.08C70.8811 18.648 70.7851 18.2 70.6731 17.736C70.5771 17.272 70.4891 16.816 70.4091 16.368C70.3291 15.904 70.2891 15.496 70.2891 15.144C70.2891 14.552 70.3691 13.928 70.5291 13.272C70.7051 12.6 70.9451 11.984 71.2491 11.424C71.5691 10.864 71.9451 10.408 72.3771 10.056C72.8251 9.688 73.3131 9.504 73.8411 9.504ZM85.1656 13.248C85.3256 13.024 85.4776 12.912 85.6216 12.912C85.7336 12.912 85.8376 13.024 85.9336 13.248C86.0296 13.456 86.0776 13.888 86.0776 14.544C84.7816 16.448 83.6136 18.144 82.5736 19.632C82.1256 20.272 81.6856 20.896 81.2536 21.504C80.8216 22.112 80.4296 22.656 80.0776 23.136C79.7256 23.616 79.4296 24 79.1896 24.288C78.9496 24.576 78.8056 24.72 78.7576 24.72C78.4856 24.72 78.2056 24.6 77.9176 24.36C77.6616 24.216 77.3656 24.032 77.0296 23.808C76.6936 23.584 76.3816 23.344 76.0936 23.088C75.7896 22.832 75.5416 22.576 75.3496 22.32C75.1416 22.064 75.0376 21.824 75.0376 21.6C75.0376 21.136 75.1416 20.48 75.3496 19.632C75.5576 18.768 75.8376 17.808 76.1896 16.752C76.5256 15.68 76.9176 14.552 77.3656 13.368C77.8136 12.184 78.2776 11.016 78.7576 9.864C79.2376 8.712 79.7176 7.632 80.1976 6.624C80.6936 5.6 81.1496 4.72 81.5656 3.984C81.6936 3.904 81.9496 3.96 82.3336 4.152C82.7176 4.328 83.1016 4.568 83.4856 4.872C83.8696 5.16 84.1896 5.472 84.4456 5.808C84.7176 6.128 84.8056 6.392 84.7096 6.6C84.6296 6.76 84.4536 7.112 84.1816 7.656C83.9256 8.184 83.6056 8.848 83.2216 9.648C82.8376 10.432 82.4216 11.32 81.9736 12.312C81.5416 13.304 81.1176 14.344 80.7016 15.432C80.2856 16.52 79.9016 17.624 79.5496 18.744C79.1976 19.864 78.9336 20.944 78.7576 21.984C79.0136 21.68 79.3016 21.32 79.6216 20.904C79.9416 20.488 80.2776 20.048 80.6296 19.584C80.9816 19.104 81.3336 18.616 81.6856 18.12C82.0536 17.624 82.4056 17.144 82.7416 16.68C83.5256 15.576 84.3336 14.432 85.1656 13.248ZM96.5358 13.368C96.6958 13.272 96.8398 13.264 96.9678 13.344C97.1118 13.424 97.2318 13.544 97.3278 13.704C97.4398 13.848 97.5118 14 97.5438 14.16C97.5918 14.32 97.5998 14.432 97.5677 14.496C97.4078 14.752 97.1438 15.12 96.7758 15.6C96.4238 16.08 96.0078 16.608 95.5278 17.184C95.0478 17.76 94.5198 18.344 93.9438 18.936C93.3678 19.528 92.7918 20.072 92.2158 20.568C91.6398 21.048 91.0718 21.44 90.5117 21.744C89.9678 22.064 89.4718 22.224 89.0238 22.224C88.4798 22.224 87.8798 22.136 87.2238 21.96C86.5838 21.784 85.9758 21.504 85.3998 21.12C84.8398 20.752 84.3758 20.28 84.0077 19.704C83.6237 19.112 83.4317 18.408 83.4317 17.592C83.4317 16.44 83.6397 15.36 84.0557 14.352C84.4558 13.328 84.9358 12.44 85.4958 11.688C86.0718 10.92 86.6718 10.312 87.2958 9.864C87.9198 9.4 88.4558 9.16 88.9038 9.144C89.0318 9.144 89.2558 9.208 89.5758 9.336C89.8958 9.448 90.2398 9.6 90.6078 9.792C90.9758 9.968 91.3278 10.168 91.6638 10.392C91.9998 10.616 92.2558 10.832 92.4318 11.04C92.5438 11.04 92.6798 11.072 92.8398 11.136C92.9998 11.2 93.1518 11.312 93.2958 11.472C93.4558 11.632 93.5918 11.856 93.7038 12.144C93.8158 12.432 93.8718 12.8 93.8718 13.248C93.8398 13.76 93.7278 14.272 93.5358 14.784C93.3598 15.296 93.1038 15.76 92.7678 16.176C92.4318 16.576 92.0158 16.912 91.5198 17.184C91.0238 17.44 90.4478 17.568 89.7918 17.568C89.0718 17.568 88.5198 17.456 88.1358 17.232C87.7678 16.992 87.5198 16.696 87.3918 16.344C87.3438 16.52 87.2958 16.68 87.2478 16.824C87.1998 16.968 87.1598 17.112 87.1278 17.256C87.0958 17.384 87.0638 17.528 87.0318 17.688C87.0158 17.848 86.9998 18.04 86.9838 18.264C86.9678 18.6 87.0158 18.904 87.1278 19.176C87.2398 19.448 87.3998 19.68 87.6078 19.872C87.8158 20.064 88.0478 20.208 88.3038 20.304C88.5758 20.4 88.8558 20.44 89.1438 20.424C89.4638 20.408 89.8318 20.28 90.2478 20.04C90.6638 19.784 91.1038 19.456 91.5678 19.056C92.0478 18.656 92.5278 18.208 93.0078 17.712C93.4878 17.2 93.9438 16.688 94.3758 16.176C94.8238 15.648 95.2318 15.144 95.5998 14.664C95.9838 14.168 96.2958 13.736 96.5358 13.368ZM91.7118 11.544C91.5518 11.544 91.3038 11.624 90.9678 11.784C90.6478 11.944 90.2878 12.184 89.8878 12.504C89.5038 12.824 89.1118 13.24 88.7118 13.752C88.3118 14.248 87.9678 14.848 87.6798 15.552C87.7598 15.632 87.8718 15.696 88.0158 15.744C88.1598 15.792 88.3438 15.816 88.5678 15.816C89.0318 15.816 89.4558 15.68 89.8398 15.408C90.2398 15.12 90.5918 14.768 90.8958 14.352C91.1998 13.92 91.4558 13.464 91.6638 12.984C91.8718 12.504 92.0238 12.072 92.1198 11.688C92.0238 11.592 91.8878 11.544 91.7118 11.544ZM99.4583 9.504C100.114 9.504 100.618 9.64 100.97 9.912C101.322 10.168 101.57 10.472 101.714 10.824C101.874 11.16 101.962 11.496 101.978 11.832C101.994 12.152 102.002 12.368 102.002 12.48C102.002 12.592 101.89 12.688 101.666 12.768C101.442 12.848 101.194 12.976 100.922 13.152C100.65 13.328 100.402 13.592 100.178 13.944C99.9543 14.28 99.8423 14.776 99.8423 15.432C99.8423 15.832 99.9143 16.24 100.058 16.656C100.202 17.072 100.362 17.496 100.538 17.928C100.73 18.344 100.898 18.768 101.042 19.2C101.186 19.632 101.258 20.064 101.258 20.496C101.258 20.928 101.138 21.392 100.898 21.888C100.674 22.4 100.33 22.872 99.8663 23.304C99.4023 23.736 98.8103 24.096 98.0903 24.384C97.3703 24.672 96.5223 24.816 95.5463 24.816C94.9063 24.816 94.2983 24.728 93.7223 24.552C93.1303 24.376 92.6103 24.136 92.1623 23.832C91.7143 23.544 91.3623 23.208 91.1063 22.824C90.8343 22.456 90.6983 22.064 90.6983 21.648C90.6983 21.248 90.8583 20.928 91.1783 20.688C91.4823 20.448 91.8343 20.28 92.2343 20.184C92.6343 20.072 93.0183 20.024 93.3863 20.04C93.7383 20.056 93.9543 20.104 94.0343 20.184C94.1143 20.264 94.1303 20.4 94.0823 20.592C94.0183 20.784 93.9623 20.976 93.9143 21.168C93.8503 21.36 93.8423 21.528 93.8903 21.672C93.9223 21.816 94.0743 21.888 94.3463 21.888C94.6183 21.888 94.8983 21.848 95.1863 21.768C95.4583 21.704 95.7063 21.6 95.9303 21.456C96.1543 21.312 96.3383 21.128 96.4823 20.904C96.6263 20.68 96.6983 20.424 96.6983 20.136C96.6983 19.848 96.6583 19.496 96.5783 19.08C96.4983 18.648 96.4023 18.2 96.2903 17.736C96.1943 17.272 96.1063 16.816 96.0263 16.368C95.9463 15.904 95.9063 15.496 95.9063 15.144C95.9063 14.552 95.9863 13.928 96.1463 13.272C96.3223 12.6 96.5623 11.984 96.8663 11.424C97.1863 10.864 97.5623 10.408 97.9943 10.056C98.4423 9.688 98.9303 9.504 99.4583 9.504ZM117.719 12.624C117.959 12.368 118.175 12.224 118.367 12.192C118.527 12.16 118.671 12.24 118.799 12.432C118.943 12.624 119.015 13.032 119.015 13.656C117.847 15.176 116.783 16.528 115.823 17.712C115.407 18.224 114.999 18.72 114.599 19.2C114.199 19.68 113.823 20.112 113.471 20.496C113.135 20.864 112.839 21.16 112.583 21.384C112.343 21.624 112.175 21.744 112.079 21.744C111.903 21.744 111.719 21.712 111.527 21.648C111.351 21.584 111.191 21.488 111.047 21.36C110.775 21.232 110.479 21.08 110.159 20.904C109.839 20.728 109.543 20.552 109.271 20.376C109.015 20.2 108.791 20.032 108.599 19.872C108.423 19.712 108.335 19.576 108.335 19.464C108.287 19.112 108.303 18.72 108.383 18.288C108.463 17.856 108.583 17.408 108.743 16.944C108.903 16.464 109.095 15.976 109.319 15.48C109.543 14.984 109.775 14.496 110.015 14.016C109.551 14.624 109.071 15.272 108.575 15.96C108.079 16.648 107.623 17.336 107.207 18.024C106.791 18.712 106.431 19.384 106.127 20.04C105.823 20.68 105.623 21.256 105.527 21.768C105.415 21.768 105.143 21.664 104.711 21.456C104.279 21.248 103.823 21.008 103.343 20.736C102.863 20.448 102.431 20.168 102.047 19.896C101.663 19.624 101.463 19.424 101.447 19.296C101.383 18.736 101.471 18.008 101.711 17.112C101.935 16.2 102.231 15.224 102.599 14.184C102.967 13.128 103.375 12.056 103.823 10.968C104.271 9.864 104.687 8.84 105.071 7.896C105.455 6.952 105.767 6.136 106.007 5.448C106.263 4.76 106.375 4.288 106.343 4.032C106.503 4.032 106.783 4.12 107.183 4.296C107.599 4.472 108.023 4.688 108.455 4.944C108.887 5.184 109.271 5.44 109.607 5.712C109.959 5.984 110.143 6.224 110.159 6.432C110.175 6.56 110.047 6.944 109.775 7.584C109.503 8.208 109.167 8.992 108.767 9.936C108.367 10.864 107.943 11.896 107.495 13.032C107.047 14.152 106.655 15.272 106.319 16.392C106.911 15.432 107.559 14.512 108.263 13.632C108.967 12.752 109.623 11.984 110.231 11.328C110.839 10.656 111.343 10.12 111.743 9.72C112.159 9.32 112.367 9.12 112.367 9.12C112.527 9.12 112.783 9.2 113.135 9.36C113.503 9.52 113.871 9.72 114.239 9.96C114.623 10.184 114.959 10.432 115.247 10.704C115.535 10.96 115.695 11.184 115.727 11.376C115.743 11.552 115.599 11.912 115.295 12.456C114.991 13 114.631 13.656 114.215 14.424C113.815 15.192 113.415 16.032 113.015 16.944C112.615 17.84 112.327 18.72 112.151 19.584C112.647 19.072 113.215 18.424 113.855 17.64C114.495 16.856 115.103 16.088 115.679 15.336C116.351 14.456 117.031 13.552 117.719 12.624ZM132.015 13.176C132.159 12.952 132.295 12.832 132.423 12.816C132.519 12.816 132.607 12.928 132.687 13.152C132.783 13.36 132.831 13.8 132.831 14.472C131.679 16.024 130.631 17.408 129.687 18.624C129.287 19.152 128.887 19.664 128.487 20.16C128.087 20.656 127.719 21.096 127.383 21.48C127.047 21.864 126.751 22.176 126.495 22.416C126.255 22.656 126.095 22.776 126.015 22.776C125.887 22.776 125.735 22.736 125.559 22.656C125.399 22.592 125.247 22.504 125.103 22.392C124.831 22.248 124.527 22.064 124.191 21.84C123.871 21.632 123.567 21.408 123.279 21.168C122.991 20.928 122.751 20.688 122.559 20.448C122.367 20.208 122.271 19.992 122.271 19.8V19.608C121.903 20.232 121.575 20.744 121.287 21.144C121.015 21.544 120.823 21.744 120.711 21.744C120.551 21.744 120.391 21.696 120.23 21.6C119.911 21.472 119.503 21.28 119.007 21.024C118.511 20.784 118.023 20.52 117.543 20.232C117.079 19.928 116.678 19.616 116.342 19.296C115.99 18.96 115.814 18.656 115.814 18.384C115.814 17.92 115.886 17.408 116.03 16.848C116.158 16.272 116.342 15.696 116.582 15.12C116.806 14.544 117.055 13.984 117.327 13.44C117.615 12.88 117.903 12.392 118.191 11.976C118.495 11.544 118.775 11.2 119.031 10.944C119.303 10.688 119.535 10.56 119.727 10.56C120.015 10.56 120.383 10.624 120.831 10.752C121.295 10.864 121.767 11.016 122.247 11.208C122.727 11.4 123.183 11.632 123.615 11.904C124.047 12.16 124.383 12.432 124.623 12.72C124.735 12.544 124.831 12.376 124.911 12.216C124.991 12.056 125.071 11.912 125.151 11.784C125.359 11.4 125.519 11.088 125.631 10.848C125.743 10.592 125.799 10.432 125.799 10.368C125.879 10.368 126.111 10.464 126.495 10.656C126.895 10.832 127.303 11.048 127.719 11.304C128.135 11.56 128.487 11.832 128.775 12.12C129.079 12.408 129.183 12.656 129.087 12.864C128.991 13.088 128.807 13.456 128.535 13.968C128.279 14.464 127.999 15.056 127.695 15.744C127.391 16.432 127.095 17.168 126.807 17.952C126.519 18.736 126.295 19.512 126.135 20.28C126.391 20.024 126.671 19.728 126.975 19.392C127.295 19.04 127.615 18.672 127.935 18.288C128.255 17.904 128.575 17.512 128.895 17.112C129.231 16.712 129.551 16.32 129.855 15.936C130.559 15.056 131.279 14.136 132.015 13.176ZM119.511 19.728C119.527 19.904 119.607 19.944 119.751 19.848C119.911 19.736 120.119 19.52 120.375 19.2C120.631 18.88 120.919 18.488 121.239 18.024C121.575 17.544 121.919 17.04 122.271 16.512C122.623 15.968 122.967 15.416 123.303 14.856C123.655 14.296 123.983 13.768 124.287 13.272C124.159 13.192 124.007 13.128 123.831 13.08C123.671 13.032 123.495 13.008 123.303 13.008C123.047 13.008 122.783 13.128 122.511 13.368C122.255 13.608 121.991 13.928 121.719 14.328C121.463 14.712 121.207 15.152 120.951 15.648C120.711 16.128 120.487 16.624 120.279 17.136C120.087 17.632 119.919 18.112 119.775 18.576C119.647 19.024 119.559 19.408 119.511 19.728ZM139.541 13.248C139.701 13.024 139.853 12.912 139.997 12.912C140.109 12.912 140.213 13.024 140.309 13.248C140.405 13.456 140.453 13.888 140.453 14.544C139.157 16.448 137.989 18.144 136.949 19.632C136.501 20.272 136.061 20.896 135.629 21.504C135.197 22.112 134.805 22.656 134.453 23.136C134.101 23.616 133.805 24 133.565 24.288C133.325 24.576 133.181 24.72 133.133 24.72C132.861 24.72 132.581 24.6 132.293 24.36C132.037 24.216 131.741 24.032 131.405 23.808C131.069 23.584 130.757 23.344 130.469 23.088C130.165 22.832 129.917 22.576 129.725 22.32C129.517 22.064 129.413 21.824 129.413 21.6C129.413 21.136 129.517 20.48 129.725 19.632C129.933 18.768 130.213 17.808 130.565 16.752C130.901 15.68 131.293 14.552 131.741 13.368C132.189 12.184 132.653 11.016 133.133 9.864C133.613 8.712 134.093 7.632 134.573 6.624C135.069 5.6 135.525 4.72 135.941 3.984C136.069 3.904 136.325 3.96 136.709 4.152C137.093 4.328 137.477 4.568 137.861 4.872C138.245 5.16 138.565 5.472 138.821 5.808C139.093 6.128 139.181 6.392 139.085 6.6C139.005 6.76 138.829 7.112 138.557 7.656C138.301 8.184 137.981 8.848 137.597 9.648C137.213 10.432 136.797 11.32 136.349 12.312C135.917 13.304 135.493 14.344 135.077 15.432C134.661 16.52 134.277 17.624 133.925 18.744C133.573 19.864 133.309 20.944 133.133 21.984C133.389 21.68 133.677 21.32 133.997 20.904C134.317 20.488 134.653 20.048 135.005 19.584C135.357 19.104 135.709 18.616 136.061 18.12C136.429 17.624 136.781 17.144 137.117 16.68C137.901 15.576 138.709 14.432 139.541 13.248ZM144.767 9C144.655 9 144.399 8.936 143.999 8.808C143.615 8.664 143.215 8.48 142.799 8.256C142.383 8.032 142.007 7.784 141.671 7.512C141.335 7.224 141.167 6.944 141.167 6.672C141.167 6.352 141.255 5.992 141.431 5.592C141.607 5.176 141.799 4.776 142.007 4.392C142.231 4.008 142.431 3.672 142.607 3.384C142.783 3.08 142.871 2.872 142.871 2.76C142.919 2.76 143.039 2.808 143.231 2.904C143.439 2.984 143.671 3.096 143.927 3.24C144.199 3.368 144.479 3.52 144.767 3.696C145.055 3.872 145.311 4.056 145.535 4.248C145.759 4.424 145.935 4.6 146.063 4.776C146.191 4.952 146.223 5.104 146.159 5.232C146.031 5.52 145.887 5.848 145.727 6.216C145.567 6.568 145.415 6.92 145.271 7.272C145.127 7.624 145.007 7.96 144.911 8.28C144.815 8.584 144.767 8.824 144.767 9ZM146.375 12.768C146.535 12.544 146.679 12.432 146.807 12.432C146.919 12.432 147.015 12.544 147.095 12.768C147.191 12.976 147.239 13.408 147.239 14.064C146.263 15.584 145.383 16.944 144.599 18.144C144.263 18.656 143.927 19.16 143.591 19.656C143.271 20.136 142.975 20.568 142.703 20.952C142.431 21.336 142.199 21.64 142.007 21.864C141.831 22.104 141.719 22.224 141.671 22.224C141.543 22.224 141.415 22.192 141.287 22.128C141.175 22.064 141.055 21.992 140.927 21.912C140.703 21.832 140.391 21.68 139.991 21.456C139.607 21.232 139.223 20.976 138.839 20.688C138.455 20.4 138.127 20.104 137.855 19.8C137.567 19.496 137.423 19.224 137.423 18.984C137.423 18.52 137.503 17.96 137.663 17.304C137.823 16.648 138.023 15.968 138.263 15.264C138.503 14.56 138.767 13.864 139.055 13.176C139.343 12.472 139.607 11.84 139.847 11.28C140.087 10.704 140.287 10.232 140.447 9.864C140.607 9.48 140.687 9.256 140.687 9.192C140.735 9.192 140.855 9.24 141.047 9.336C141.255 9.416 141.487 9.528 141.743 9.672C142.015 9.8 142.295 9.952 142.583 10.128C142.871 10.304 143.127 10.488 143.351 10.68C143.575 10.856 143.751 11.032 143.879 11.208C144.007 11.384 144.039 11.536 143.975 11.664C143.879 11.888 143.703 12.28 143.447 12.84C143.191 13.384 142.919 14.032 142.631 14.784C142.343 15.52 142.063 16.312 141.791 17.16C141.535 18.008 141.343 18.832 141.215 19.632L146.375 12.768ZM155.907 21.528C156.563 21.528 157.123 21.656 157.587 21.912C158.067 22.184 158.459 22.528 158.763 22.944C159.083 23.36 159.315 23.832 159.459 24.36C159.619 24.888 159.699 25.416 159.699 25.944C159.699 26.168 159.603 26.432 159.411 26.736C159.235 27.04 159.027 27.312 158.787 27.552C158.563 27.808 158.355 27.992 158.163 28.104C157.987 28.232 157.899 28.224 157.899 28.08C157.899 27.728 157.819 27.352 157.659 26.952C157.515 26.568 157.259 26.216 156.891 25.896C156.523 25.576 156.035 25.312 155.427 25.104C154.819 24.896 154.067 24.784 153.171 24.768C152.707 25.904 152.235 26.984 151.755 28.008C151.291 29.048 150.827 29.96 150.363 30.744C149.915 31.528 149.475 32.152 149.043 32.616C148.611 33.096 148.219 33.336 147.867 33.336C147.419 33.336 146.915 33.272 146.355 33.144C145.811 33.016 145.299 32.76 144.819 32.376C144.323 31.992 143.915 31.456 143.595 30.768C143.259 30.08 143.091 29.168 143.091 28.032C143.091 27.44 143.275 26.848 143.643 26.256C144.011 25.68 144.531 25.128 145.203 24.6C145.875 24.072 146.683 23.592 147.627 23.16C148.571 22.728 149.619 22.376 150.771 22.104C151.219 20.92 151.643 19.736 152.043 18.552C152.459 17.368 152.827 16.24 153.147 15.168C152.731 15.92 152.307 16.68 151.875 17.448C151.459 18.2 151.067 18.88 150.699 19.488C150.347 20.096 150.035 20.592 149.763 20.976C149.491 21.36 149.299 21.552 149.187 21.552C149.027 21.552 148.867 21.504 148.707 21.408C148.387 21.28 147.979 21.096 147.483 20.856C146.987 20.6 146.499 20.328 146.019 20.04C145.555 19.736 145.155 19.424 144.819 19.104C144.467 18.768 144.291 18.464 144.291 18.192C144.291 17.728 144.363 17.216 144.507 16.656C144.651 16.08 144.835 15.504 145.059 14.928C145.283 14.352 145.539 13.792 145.827 13.248C146.115 12.688 146.403 12.2 146.691 11.784C146.979 11.352 147.251 11.008 147.507 10.752C147.779 10.496 148.011 10.368 148.203 10.368C148.491 10.368 148.851 10.424 149.283 10.536C149.715 10.648 150.163 10.8 150.627 10.992C151.107 11.168 151.555 11.384 151.971 11.64C152.403 11.88 152.747 12.136 153.003 12.408C153.179 12.088 153.347 11.792 153.507 11.52C153.667 11.248 153.803 11.008 153.915 10.8C154.043 10.576 154.163 10.368 154.275 10.176C154.355 10.176 154.587 10.272 154.971 10.464C155.371 10.64 155.779 10.856 156.195 11.112C156.611 11.368 156.963 11.64 157.251 11.928C157.555 12.216 157.659 12.464 157.563 12.672C157.515 12.8 157.395 13.136 157.203 13.68C157.027 14.208 156.795 14.88 156.507 15.696C156.235 16.496 155.915 17.408 155.547 18.432C155.195 19.44 154.819 20.488 154.419 21.576C154.659 21.544 154.899 21.528 155.139 21.528C155.395 21.528 155.651 21.528 155.907 21.528ZM147.987 19.536C148.003 19.712 148.083 19.744 148.227 19.632C148.371 19.52 148.563 19.312 148.803 19.008C149.059 18.704 149.339 18.32 149.643 17.856C149.963 17.376 150.291 16.872 150.627 16.344C150.963 15.8 151.307 15.24 151.659 14.664C152.011 14.088 152.339 13.536 152.643 13.008C152.515 12.96 152.379 12.92 152.235 12.888C152.107 12.84 151.955 12.816 151.779 12.816C151.539 12.816 151.283 12.936 151.011 13.176C150.739 13.416 150.467 13.736 150.195 14.136C149.939 14.52 149.691 14.96 149.451 15.456C149.211 15.936 148.987 16.432 148.779 16.944C148.587 17.44 148.419 17.92 148.275 18.384C148.131 18.832 148.035 19.216 147.987 19.536ZM146.451 31.104C146.563 31.104 146.723 30.952 146.931 30.648C147.155 30.36 147.395 29.952 147.651 29.424C147.923 28.912 148.219 28.296 148.539 27.576C148.859 26.872 149.187 26.104 149.523 25.272C148.467 25.608 147.603 26.072 146.931 26.664C146.275 27.256 145.947 27.92 145.947 28.656C145.947 29.216 145.963 29.656 145.995 29.976C146.043 30.296 146.091 30.536 146.139 30.696C146.203 30.872 146.259 30.984 146.307 31.032C146.371 31.08 146.419 31.104 146.451 31.104ZM172.984 12.624C173.224 12.368 173.44 12.224 173.632 12.192C173.792 12.16 173.936 12.24 174.064 12.432C174.208 12.624 174.28 13.032 174.28 13.656C173.112 15.176 172.048 16.528 171.088 17.712C170.672 18.224 170.264 18.72 169.864 19.2C169.464 19.68 169.088 20.112 168.736 20.496C168.4 20.864 168.104 21.16 167.848 21.384C167.608 21.624 167.44 21.744 167.344 21.744C167.168 21.744 166.984 21.712 166.792 21.648C166.616 21.584 166.456 21.488 166.312 21.36C166.04 21.232 165.744 21.08 165.424 20.904C165.104 20.728 164.808 20.552 164.536 20.376C164.28 20.2 164.056 20.032 163.864 19.872C163.688 19.712 163.6 19.576 163.6 19.464C163.552 19.112 163.568 18.72 163.648 18.288C163.728 17.856 163.848 17.408 164.008 16.944C164.168 16.464 164.36 15.976 164.584 15.48C164.808 14.984 165.04 14.496 165.28 14.016C164.816 14.624 164.336 15.272 163.84 15.96C163.344 16.648 162.888 17.336 162.472 18.024C162.056 18.712 161.696 19.384 161.392 20.04C161.088 20.68 160.888 21.256 160.792 21.768C160.68 21.768 160.408 21.664 159.976 21.456C159.544 21.248 159.088 21.008 158.608 20.736C158.128 20.448 157.696 20.168 157.312 19.896C156.928 19.624 156.728 19.424 156.712 19.296C156.648 18.736 156.736 18.008 156.976 17.112C157.2 16.2 157.496 15.224 157.864 14.184C158.232 13.128 158.64 12.056 159.088 10.968C159.536 9.864 159.952 8.84 160.336 7.896C160.72 6.952 161.032 6.136 161.272 5.448C161.528 4.76 161.64 4.288 161.608 4.032C161.768 4.032 162.048 4.12 162.448 4.296C162.864 4.472 163.288 4.688 163.72 4.944C164.152 5.184 164.536 5.44 164.872 5.712C165.224 5.984 165.408 6.224 165.424 6.432C165.44 6.56 165.312 6.944 165.04 7.584C164.768 8.208 164.432 8.992 164.032 9.936C163.632 10.864 163.208 11.896 162.76 13.032C162.312 14.152 161.92 15.272 161.584 16.392C162.176 15.432 162.824 14.512 163.528 13.632C164.232 12.752 164.888 11.984 165.496 11.328C166.104 10.656 166.608 10.12 167.008 9.72C167.424 9.32 167.632 9.12 167.632 9.12C167.792 9.12 168.048 9.2 168.4 9.36C168.768 9.52 169.136 9.72 169.504 9.96C169.888 10.184 170.224 10.432 170.512 10.704C170.8 10.96 170.96 11.184 170.992 11.376C171.008 11.552 170.864 11.912 170.56 12.456C170.256 13 169.896 13.656 169.48 14.424C169.08 15.192 168.68 16.032 168.28 16.944C167.88 17.84 167.592 18.72 167.416 19.584C167.912 19.072 168.48 18.424 169.12 17.64C169.76 16.856 170.368 16.088 170.944 15.336C171.616 14.456 172.296 13.552 172.984 12.624ZM180.584 12.888C180.728 12.696 180.864 12.6 180.992 12.6C181.088 12.616 181.176 12.728 181.256 12.936C181.352 13.144 181.4 13.56 181.4 14.184C180.136 16.088 178.992 17.784 177.968 19.272C177.536 19.912 177.104 20.536 176.672 21.144C176.24 21.752 175.848 22.296 175.496 22.776C175.16 23.256 174.872 23.64 174.632 23.928C174.408 24.216 174.272 24.36 174.224 24.36C173.952 24.36 173.672 24.24 173.384 24C173.128 23.856 172.832 23.672 172.496 23.448C172.176 23.224 171.872 22.984 171.584 22.728C171.28 22.472 171.024 22.216 170.816 21.96C170.608 21.704 170.504 21.464 170.504 21.24C170.504 20.872 170.568 20.384 170.696 19.776C170.824 19.152 171.008 18.456 171.248 17.688C171.472 16.92 171.736 16.096 172.04 15.216C172.344 14.32 172.672 13.408 173.024 12.48C172.464 12.48 172.032 12.52 171.728 12.6C171.408 12.664 171.168 12.728 171.008 12.792C170.848 12.856 170.736 12.904 170.672 12.936C170.608 12.968 170.552 12.952 170.504 12.888C170.408 12.808 170.416 12.624 170.528 12.336C170.64 12.048 170.8 11.728 171.008 11.376C171.2 11.024 171.424 10.68 171.68 10.344C171.92 10.008 172.136 9.744 172.328 9.552C172.44 9.44 172.664 9.384 173 9.384C173.352 9.384 173.768 9.408 174.248 9.456C174.488 8.896 174.704 8.392 174.896 7.944C175.088 7.496 175.272 7.088 175.448 6.72C175.624 6.336 175.792 5.976 175.952 5.64C176.128 5.288 176.32 4.928 176.528 4.56C176.656 4.48 176.912 4.536 177.296 4.728C177.68 4.904 178.064 5.144 178.448 5.448C178.832 5.736 179.152 6.048 179.408 6.384C179.68 6.72 179.768 6.992 179.672 7.2C179.64 7.296 179.592 7.408 179.528 7.536C179.48 7.648 179.4 7.808 179.288 8.016C179.192 8.208 179.064 8.464 178.904 8.784C178.76 9.104 178.576 9.504 178.352 9.984C178.8 10.016 179.192 10.016 179.528 9.984C179.864 9.952 180.096 9.872 180.224 9.744C180.384 9.6 180.472 9.584 180.488 9.696C180.504 9.792 180.472 9.968 180.392 10.224C180.312 10.48 180.192 10.776 180.032 11.112C179.872 11.432 179.704 11.744 179.528 12.048C179.352 12.336 179.168 12.584 178.976 12.792C178.784 13 178.616 13.096 178.472 13.08C178.216 13.032 177.968 12.992 177.728 12.96C177.504 12.912 177.28 12.872 177.056 12.84C176.464 14.232 175.904 15.688 175.376 17.208C174.864 18.728 174.48 20.2 174.224 21.624C174.48 21.32 174.768 20.96 175.088 20.544C175.424 20.128 175.76 19.688 176.096 19.224C176.448 18.744 176.8 18.256 177.152 17.76C177.504 17.264 177.848 16.784 178.184 16.32C178.952 15.216 179.752 14.072 180.584 12.888ZM194.055 11.784C194.151 11.688 194.351 11.544 194.655 11.352C194.959 11.144 195.303 10.888 195.687 10.584C196.087 10.264 196.487 9.912 196.887 9.528C197.303 9.128 197.663 8.688 197.967 8.208C197.791 7.984 197.591 7.808 197.367 7.68C197.159 7.552 196.935 7.488 196.695 7.488C195.831 7.488 194.911 7.6 193.935 7.824C192.975 8.048 192.023 8.392 191.079 8.856C190.135 9.304 189.223 9.872 188.343 10.56C187.479 11.248 186.711 12.048 186.039 12.96C185.383 13.856 184.855 14.872 184.455 16.008C184.071 17.144 183.879 18.392 183.879 19.752C183.879 20.184 183.951 20.528 184.095 20.784C184.239 21.04 184.423 21.232 184.647 21.36C184.871 21.504 185.127 21.592 185.415 21.624C185.719 21.656 186.023 21.672 186.327 21.672C187.431 21.672 188.463 21.496 189.423 21.144C190.383 20.808 191.263 20.384 192.063 19.872C192.863 19.344 193.575 18.784 194.199 18.192C194.839 17.584 195.383 17.024 195.831 16.512C196.279 15.984 196.631 15.552 196.887 15.216C197.143 14.864 197.295 14.688 197.343 14.688C197.423 14.688 197.503 14.76 197.583 14.904C197.679 15.032 197.759 15.192 197.823 15.384C197.903 15.576 197.959 15.776 197.991 15.984C198.039 16.192 198.047 16.36 198.015 16.488C197.871 17.096 197.599 17.752 197.199 18.456C196.815 19.16 196.343 19.864 195.783 20.568C195.223 21.256 194.599 21.92 193.911 22.56C193.239 23.216 192.543 23.784 191.823 24.264C191.103 24.76 190.383 25.152 189.663 25.44C188.943 25.744 188.271 25.896 187.647 25.896C187.311 25.896 186.863 25.8 186.303 25.608C185.759 25.432 185.167 25.168 184.527 24.816C183.903 24.48 183.263 24.064 182.607 23.568C181.967 23.088 181.383 22.528 180.855 21.888C180.343 21.264 179.927 20.584 179.607 19.848C179.271 19.096 179.103 18.296 179.103 17.448C179.103 16.12 179.391 14.848 179.967 13.632C180.527 12.4 181.263 11.256 182.175 10.2C183.087 9.144 184.119 8.184 185.271 7.32C186.423 6.456 187.575 5.72 188.727 5.112C189.879 4.488 190.975 4.008 192.015 3.672C193.071 3.336 193.959 3.168 194.679 3.168C195.175 3.168 195.631 3.272 196.047 3.48C196.479 3.688 196.863 3.96 197.199 4.296C197.535 4.616 197.815 4.984 198.039 5.4C198.279 5.8 198.471 6.2 198.615 6.6C198.663 6.408 198.687 6.216 198.687 6.024C198.687 5.912 198.815 5.888 199.071 5.952C199.327 6.016 199.607 6.16 199.911 6.384C200.231 6.608 200.519 6.92 200.775 7.32C201.047 7.72 201.183 8.2 201.183 8.76C201.183 9.24 200.991 9.72 200.607 10.2C200.239 10.68 199.791 11.12 199.263 11.52C198.735 11.904 198.183 12.224 197.607 12.48C197.031 12.736 196.535 12.864 196.119 12.864C195.927 12.864 195.695 12.824 195.423 12.744C195.167 12.664 194.919 12.568 194.679 12.456C194.455 12.328 194.279 12.2 194.151 12.072C194.023 11.944 193.991 11.848 194.055 11.784ZM213.34 13.056C213.404 13.184 213.468 13.304 213.532 13.416C213.612 13.528 213.668 13.664 213.7 13.824C213.748 13.984 213.756 14.176 213.724 14.4C213.708 14.624 213.644 14.912 213.532 15.264C212.236 16.816 211.052 18.2 209.98 19.416C209.516 19.928 209.06 20.432 208.612 20.928C208.164 21.424 207.748 21.864 207.364 22.248C206.996 22.632 206.676 22.944 206.404 23.184C206.148 23.424 205.972 23.544 205.876 23.544H205.804C205.756 23.544 205.716 23.536 205.684 23.52C205.556 23.504 205.396 23.44 205.204 23.328C204.932 23.2 204.62 23.024 204.268 22.8C203.916 22.576 203.572 22.336 203.236 22.08C202.916 21.824 202.644 21.56 202.42 21.288C202.196 21.032 202.084 20.792 202.084 20.568C202.084 20.088 202.188 19.496 202.396 18.792C202.62 18.072 202.892 17.32 203.212 16.536C203.532 15.736 203.876 14.936 204.244 14.136C204.628 13.32 204.98 12.576 205.3 11.904C205.044 11.984 204.78 12.08 204.508 12.192C204.236 12.288 203.98 12.392 203.74 12.504C203.516 12.6 203.316 12.696 203.14 12.792C202.98 12.872 202.868 12.936 202.804 12.984C202.724 12.984 202.508 12.904 202.156 12.744L200.38 15.072C200.236 15.248 200.116 15.312 200.02 15.264C199.94 15.232 199.86 15.096 199.78 14.856C199.716 14.616 199.684 14.168 199.684 13.512L200.788 11.928C200.34 11.624 199.94 11.304 199.588 10.968C199.252 10.616 199.084 10.304 199.084 10.032C199.084 9.584 199.228 9.08 199.516 8.52C199.788 7.944 200.092 7.392 200.428 6.864C200.764 6.336 201.068 5.872 201.34 5.472C201.628 5.072 201.772 4.824 201.772 4.728C201.852 4.728 202.084 4.824 202.468 5.016C202.868 5.192 203.276 5.416 203.692 5.688C204.108 5.944 204.46 6.216 204.748 6.504C205.052 6.776 205.156 7.016 205.06 7.224C204.9 7.56 204.66 8.008 204.34 8.568C204.02 9.112 203.716 9.712 203.428 10.368C203.716 10.24 204.02 10.128 204.34 10.032C204.676 9.92 204.988 9.824 205.276 9.744C205.564 9.664 205.812 9.608 206.02 9.576C206.228 9.528 206.364 9.504 206.428 9.504H206.452H206.476C206.556 9.536 206.7 9.616 206.908 9.744C207.116 9.872 207.348 10.04 207.604 10.248C207.86 10.44 208.124 10.664 208.396 10.92C208.684 11.16 208.932 11.4 209.14 11.64C209.348 11.864 209.508 12.088 209.62 12.312C209.748 12.52 209.78 12.688 209.716 12.816C209.62 13.04 209.404 13.448 209.068 14.04C208.732 14.632 208.364 15.328 207.964 16.128C207.58 16.912 207.196 17.752 206.812 18.648C206.444 19.544 206.164 20.408 205.972 21.24C206.26 20.984 206.58 20.672 206.932 20.304C207.3 19.936 207.684 19.536 208.084 19.104C208.484 18.672 208.892 18.224 209.308 17.76C209.724 17.296 210.124 16.84 210.508 16.392C211.42 15.336 212.364 14.224 213.34 13.056ZM224.34 13.368C224.5 13.272 224.644 13.264 224.772 13.344C224.916 13.424 225.036 13.544 225.132 13.704C225.244 13.848 225.316 14 225.348 14.16C225.396 14.32 225.404 14.432 225.372 14.496C225.212 14.752 224.948 15.12 224.58 15.6C224.228 16.08 223.812 16.608 223.332 17.184C222.852 17.76 222.324 18.344 221.748 18.936C221.172 19.528 220.596 20.072 220.02 20.568C219.444 21.048 218.876 21.44 218.316 21.744C217.772 22.064 217.276 22.224 216.828 22.224C216.284 22.224 215.684 22.136 215.028 21.96C214.388 21.784 213.78 21.504 213.204 21.12C212.644 20.752 212.18 20.28 211.812 19.704C211.428 19.112 211.236 18.408 211.236 17.592C211.236 16.44 211.444 15.36 211.86 14.352C212.26 13.328 212.74 12.44 213.3 11.688C213.876 10.92 214.476 10.312 215.1 9.864C215.724 9.4 216.26 9.16 216.708 9.144C216.836 9.144 217.06 9.208 217.38 9.336C217.7 9.448 218.044 9.6 218.412 9.792C218.78 9.968 219.132 10.168 219.468 10.392C219.804 10.616 220.06 10.832 220.236 11.04C220.348 11.04 220.484 11.072 220.644 11.136C220.804 11.2 220.956 11.312 221.1 11.472C221.26 11.632 221.396 11.856 221.508 12.144C221.62 12.432 221.676 12.8 221.676 13.248C221.644 13.76 221.532 14.272 221.34 14.784C221.164 15.296 220.908 15.76 220.572 16.176C220.236 16.576 219.82 16.912 219.324 17.184C218.828 17.44 218.252 17.568 217.596 17.568C216.876 17.568 216.324 17.456 215.94 17.232C215.572 16.992 215.324 16.696 215.196 16.344C215.148 16.52 215.1 16.68 215.052 16.824C215.004 16.968 214.964 17.112 214.932 17.256C214.9 17.384 214.868 17.528 214.836 17.688C214.82 17.848 214.804 18.04 214.788 18.264C214.772 18.6 214.82 18.904 214.932 19.176C215.044 19.448 215.204 19.68 215.412 19.872C215.62 20.064 215.852 20.208 216.108 20.304C216.38 20.4 216.66 20.44 216.948 20.424C217.268 20.408 217.636 20.28 218.052 20.04C218.468 19.784 218.908 19.456 219.372 19.056C219.852 18.656 220.332 18.208 220.812 17.712C221.292 17.2 221.748 16.688 222.18 16.176C222.628 15.648 223.036 15.144 223.404 14.664C223.788 14.168 224.1 13.736 224.34 13.368ZM219.516 11.544C219.356 11.544 219.108 11.624 218.772 11.784C218.452 11.944 218.092 12.184 217.692 12.504C217.308 12.824 216.916 13.24 216.516 13.752C216.116 14.248 215.772 14.848 215.484 15.552C215.564 15.632 215.676 15.696 215.82 15.744C215.964 15.792 216.148 15.816 216.372 15.816C216.836 15.816 217.26 15.68 217.644 15.408C218.044 15.12 218.396 14.768 218.7 14.352C219.004 13.92 219.26 13.464 219.468 12.984C219.676 12.504 219.828 12.072 219.924 11.688C219.828 11.592 219.692 11.544 219.516 11.544ZM238.725 13.176C238.869 12.952 239.005 12.832 239.133 12.816C239.229 12.816 239.317 12.928 239.397 13.152C239.493 13.36 239.541 13.8 239.541 14.472C238.389 16.024 237.341 17.408 236.397 18.624C235.997 19.152 235.597 19.664 235.197 20.16C234.797 20.656 234.429 21.096 234.093 21.48C233.757 21.864 233.461 22.176 233.205 22.416C232.965 22.656 232.805 22.776 232.725 22.776C232.597 22.776 232.445 22.736 232.269 22.656C232.109 22.592 231.957 22.504 231.813 22.392C231.541 22.248 231.237 22.064 230.901 21.84C230.581 21.632 230.277 21.408 229.989 21.168C229.701 20.928 229.461 20.688 229.269 20.448C229.077 20.208 228.981 19.992 228.981 19.8V19.608C228.613 20.232 228.285 20.744 227.997 21.144C227.725 21.544 227.533 21.744 227.421 21.744C227.261 21.744 227.101 21.696 226.941 21.6C226.621 21.472 226.213 21.28 225.717 21.024C225.221 20.784 224.733 20.52 224.253 20.232C223.789 19.928 223.389 19.616 223.053 19.296C222.701 18.96 222.525 18.656 222.525 18.384C222.525 17.92 222.597 17.408 222.741 16.848C222.869 16.272 223.053 15.696 223.293 15.12C223.517 14.544 223.765 13.984 224.037 13.44C224.325 12.88 224.613 12.392 224.901 11.976C225.205 11.544 225.485 11.2 225.741 10.944C226.013 10.688 226.245 10.56 226.437 10.56C226.725 10.56 227.093 10.624 227.541 10.752C228.005 10.864 228.477 11.016 228.957 11.208C229.437 11.4 229.893 11.632 230.325 11.904C230.757 12.16 231.093 12.432 231.333 12.72C231.445 12.544 231.541 12.376 231.621 12.216C231.701 12.056 231.781 11.912 231.861 11.784C232.069 11.4 232.229 11.088 232.341 10.848C232.453 10.592 232.509 10.432 232.509 10.368C232.589 10.368 232.821 10.464 233.205 10.656C233.605 10.832 234.013 11.048 234.429 11.304C234.845 11.56 235.197 11.832 235.485 12.12C235.789 12.408 235.893 12.656 235.797 12.864C235.701 13.088 235.517 13.456 235.245 13.968C234.989 14.464 234.709 15.056 234.405 15.744C234.101 16.432 233.805 17.168 233.517 17.952C233.229 18.736 233.005 19.512 232.845 20.28C233.101 20.024 233.381 19.728 233.685 19.392C234.005 19.04 234.325 18.672 234.645 18.288C234.965 17.904 235.285 17.512 235.605 17.112C235.941 16.712 236.261 16.32 236.565 15.936C237.269 15.056 237.989 14.136 238.725 13.176ZM226.221 19.728C226.237 19.904 226.317 19.944 226.461 19.848C226.621 19.736 226.829 19.52 227.085 19.2C227.341 18.88 227.629 18.488 227.949 18.024C228.285 17.544 228.629 17.04 228.981 16.512C229.333 15.968 229.677 15.416 230.013 14.856C230.365 14.296 230.693 13.768 230.997 13.272C230.869 13.192 230.717 13.128 230.541 13.08C230.381 13.032 230.205 13.008 230.013 13.008C229.757 13.008 229.493 13.128 229.221 13.368C228.965 13.608 228.701 13.928 228.429 14.328C228.173 14.712 227.917 15.152 227.661 15.648C227.421 16.128 227.197 16.624 226.989 17.136C226.797 17.632 226.629 18.112 226.485 18.576C226.357 19.024 226.269 19.408 226.221 19.728ZM246.444 12.888C246.588 12.696 246.724 12.6 246.852 12.6C246.948 12.616 247.036 12.728 247.116 12.936C247.212 13.144 247.26 13.56 247.26 14.184C245.996 16.088 244.852 17.784 243.828 19.272C243.396 19.912 242.964 20.536 242.532 21.144C242.1 21.752 241.708 22.296 241.355 22.776C241.02 23.256 240.732 23.64 240.492 23.928C240.268 24.216 240.132 24.36 240.084 24.36C239.812 24.36 239.532 24.24 239.244 24C238.988 23.856 238.692 23.672 238.356 23.448C238.035 23.224 237.731 22.984 237.443 22.728C237.139 22.472 236.883 22.216 236.675 21.96C236.467 21.704 236.363 21.464 236.363 21.24C236.363 20.872 236.427 20.384 236.555 19.776C236.683 19.152 236.867 18.456 237.107 17.688C237.331 16.92 237.595 16.096 237.899 15.216C238.204 14.32 238.532 13.408 238.884 12.48C238.324 12.48 237.891 12.52 237.587 12.6C237.267 12.664 237.027 12.728 236.867 12.792C236.707 12.856 236.595 12.904 236.531 12.936C236.467 12.968 236.411 12.952 236.363 12.888C236.267 12.808 236.275 12.624 236.387 12.336C236.499 12.048 236.659 11.728 236.867 11.376C237.059 11.024 237.283 10.68 237.539 10.344C237.779 10.008 237.995 9.744 238.188 9.552C238.3 9.44 238.524 9.384 238.86 9.384C239.212 9.384 239.628 9.408 240.108 9.456C240.348 8.896 240.564 8.392 240.756 7.944C240.948 7.496 241.132 7.088 241.308 6.72C241.484 6.336 241.652 5.976 241.812 5.64C241.988 5.288 242.18 4.928 242.388 4.56C242.516 4.48 242.772 4.536 243.156 4.728C243.54 4.904 243.924 5.144 244.308 5.448C244.692 5.736 245.012 6.048 245.268 6.384C245.54 6.72 245.628 6.992 245.532 7.2C245.5 7.296 245.452 7.408 245.388 7.536C245.34 7.648 245.26 7.808 245.148 8.016C245.052 8.208 244.924 8.464 244.764 8.784C244.62 9.104 244.436 9.504 244.212 9.984C244.66 10.016 245.052 10.016 245.388 9.984C245.724 9.952 245.956 9.872 246.084 9.744C246.244 9.6 246.332 9.584 246.348 9.696C246.364 9.792 246.332 9.968 246.252 10.224C246.172 10.48 246.052 10.776 245.892 11.112C245.732 11.432 245.564 11.744 245.388 12.048C245.212 12.336 245.028 12.584 244.836 12.792C244.644 13 244.476 13.096 244.332 13.08C244.076 13.032 243.828 12.992 243.588 12.96C243.364 12.912 243.14 12.872 242.916 12.84C242.324 14.232 241.764 15.688 241.236 17.208C240.724 18.728 240.34 20.2 240.084 21.624C240.34 21.32 240.628 20.96 240.948 20.544C241.284 20.128 241.62 19.688 241.956 19.224C242.308 18.744 242.66 18.256 243.012 17.76C243.364 17.264 243.708 16.784 244.044 16.32C244.812 15.216 245.612 14.072 246.444 12.888ZM251.946 9C251.834 9 251.578 8.936 251.178 8.808C250.794 8.664 250.394 8.48 249.978 8.256C249.562 8.032 249.186 7.784 248.85 7.512C248.514 7.224 248.346 6.944 248.346 6.672C248.346 6.352 248.434 5.992 248.61 5.592C248.786 5.176 248.978 4.776 249.186 4.392C249.41 4.008 249.61 3.672 249.786 3.384C249.962 3.08 250.05 2.872 250.05 2.76C250.098 2.76 250.218 2.808 250.41 2.904C250.618 2.984 250.85 3.096 251.106 3.24C251.378 3.368 251.658 3.52 251.946 3.696C252.234 3.872 252.49 4.056 252.714 4.248C252.938 4.424 253.114 4.6 253.242 4.776C253.37 4.952 253.402 5.104 253.338 5.232C253.21 5.52 253.066 5.848 252.906 6.216C252.746 6.568 252.594 6.92 252.45 7.272C252.306 7.624 252.186 7.96 252.09 8.28C251.994 8.584 251.946 8.824 251.946 9ZM253.554 12.768C253.714 12.544 253.858 12.432 253.986 12.432C254.098 12.432 254.194 12.544 254.274 12.768C254.37 12.976 254.418 13.408 254.418 14.064C253.442 15.584 252.562 16.944 251.778 18.144C251.442 18.656 251.106 19.16 250.77 19.656C250.45 20.136 250.154 20.568 249.882 20.952C249.61 21.336 249.378 21.64 249.186 21.864C249.01 22.104 248.898 22.224 248.85 22.224C248.722 22.224 248.594 22.192 248.466 22.128C248.354 22.064 248.234 21.992 248.106 21.912C247.882 21.832 247.57 21.68 247.17 21.456C246.786 21.232 246.402 20.976 246.018 20.688C245.634 20.4 245.306 20.104 245.034 19.8C244.746 19.496 244.602 19.224 244.602 18.984C244.602 18.52 244.682 17.96 244.842 17.304C245.002 16.648 245.202 15.968 245.442 15.264C245.682 14.56 245.946 13.864 246.234 13.176C246.522 12.472 246.786 11.84 247.026 11.28C247.266 10.704 247.466 10.232 247.626 9.864C247.786 9.48 247.866 9.256 247.866 9.192C247.914 9.192 248.034 9.24 248.226 9.336C248.434 9.416 248.666 9.528 248.922 9.672C249.194 9.8 249.474 9.952 249.762 10.128C250.05 10.304 250.306 10.488 250.53 10.68C250.754 10.856 250.93 11.032 251.058 11.208C251.186 11.384 251.218 11.536 251.154 11.664C251.058 11.888 250.882 12.28 250.626 12.84C250.37 13.384 250.098 14.032 249.81 14.784C249.522 15.52 249.242 16.312 248.97 17.16C248.714 18.008 248.522 18.832 248.394 19.632L253.554 12.768ZM264.215 5.52C264.359 5.456 264.543 5.472 264.767 5.568C265.007 5.648 265.255 5.784 265.511 5.976C265.783 6.152 266.047 6.36 266.303 6.6C266.559 6.84 266.775 7.08 266.951 7.32C267.143 7.544 267.279 7.752 267.359 7.944C267.455 8.12 267.463 8.24 267.383 8.304C267.351 8.32 267.303 8.304 267.239 8.256C267.175 8.208 267.103 8.16 267.023 8.112C266.943 8.048 266.855 8.008 266.759 7.992C266.663 7.976 266.567 8.016 266.471 8.112C264.471 10.144 262.791 12.056 261.431 13.848C260.071 15.64 258.959 17.224 258.095 18.6C257.087 20.2 256.271 21.68 255.647 23.04C255.471 23.04 255.295 22.976 255.119 22.848C254.943 22.736 254.767 22.592 254.591 22.416C254.431 22.256 254.279 22.088 254.135 21.912C254.007 21.752 253.903 21.616 253.823 21.504C253.583 21.36 253.327 21.192 253.055 21C252.799 20.792 252.559 20.592 252.335 20.4C252.095 20.208 251.903 20.024 251.759 19.848C251.599 19.656 251.519 19.496 251.519 19.368C251.519 19.16 251.575 18.808 251.687 18.312C251.783 17.816 251.911 17.248 252.071 16.608C252.231 15.968 252.407 15.288 252.599 14.568C252.791 13.848 252.967 13.16 253.127 12.504C253.287 11.848 253.415 11.264 253.511 10.752C253.623 10.224 253.679 9.84 253.679 9.6C254.031 9.584 254.399 9.672 254.783 9.864C255.183 10.04 255.535 10.256 255.839 10.512C256.159 10.768 256.407 11.04 256.583 11.328C256.775 11.616 256.847 11.856 256.799 12.048C256.767 12.192 256.703 12.456 256.607 12.84C256.527 13.208 256.423 13.656 256.295 14.184C256.183 14.696 256.047 15.248 255.887 15.84C255.743 16.432 255.599 17.016 255.455 17.592C255.871 16.872 256.335 16.112 256.847 15.312C257.359 14.496 257.887 13.688 258.431 12.888C258.991 12.072 259.551 11.28 260.111 10.512C260.671 9.744 261.207 9.04 261.719 8.4C262.231 7.744 262.703 7.168 263.135 6.672C263.567 6.176 263.927 5.792 264.215 5.52ZM275.528 13.368C275.688 13.272 275.832 13.264 275.96 13.344C276.104 13.424 276.224 13.544 276.32 13.704C276.432 13.848 276.504 14 276.536 14.16C276.584 14.32 276.592 14.432 276.56 14.496C276.4 14.752 276.136 15.12 275.768 15.6C275.416 16.08 275 16.608 274.52 17.184C274.04 17.76 273.512 18.344 272.936 18.936C272.36 19.528 271.784 20.072 271.208 20.568C270.632 21.048 270.064 21.44 269.504 21.744C268.96 22.064 268.464 22.224 268.016 22.224C267.472 22.224 266.872 22.136 266.216 21.96C265.576 21.784 264.968 21.504 264.392 21.12C263.832 20.752 263.368 20.28 263 19.704C262.616 19.112 262.424 18.408 262.424 17.592C262.424 16.44 262.632 15.36 263.048 14.352C263.448 13.328 263.928 12.44 264.488 11.688C265.064 10.92 265.664 10.312 266.288 9.864C266.912 9.4 267.448 9.16 267.896 9.144C268.024 9.144 268.248 9.208 268.568 9.336C268.888 9.448 269.232 9.6 269.6 9.792C269.968 9.968 270.32 10.168 270.656 10.392C270.992 10.616 271.248 10.832 271.424 11.04C271.536 11.04 271.672 11.072 271.832 11.136C271.992 11.2 272.144 11.312 272.288 11.472C272.448 11.632 272.584 11.856 272.696 12.144C272.808 12.432 272.864 12.8 272.864 13.248C272.832 13.76 272.72 14.272 272.528 14.784C272.352 15.296 272.096 15.76 271.76 16.176C271.424 16.576 271.008 16.912 270.512 17.184C270.016 17.44 269.44 17.568 268.784 17.568C268.064 17.568 267.512 17.456 267.128 17.232C266.76 16.992 266.512 16.696 266.384 16.344C266.336 16.52 266.288 16.68 266.24 16.824C266.192 16.968 266.152 17.112 266.12 17.256C266.088 17.384 266.056 17.528 266.024 17.688C266.008 17.848 265.992 18.04 265.976 18.264C265.96 18.6 266.008 18.904 266.12 19.176C266.232 19.448 266.392 19.68 266.6 19.872C266.808 20.064 267.04 20.208 267.296 20.304C267.568 20.4 267.848 20.44 268.136 20.424C268.456 20.408 268.824 20.28 269.24 20.04C269.656 19.784 270.096 19.456 270.56 19.056C271.04 18.656 271.52 18.208 272 17.712C272.48 17.2 272.936 16.688 273.368 16.176C273.816 15.648 274.224 15.144 274.592 14.664C274.976 14.168 275.288 13.736 275.528 13.368ZM270.704 11.544C270.544 11.544 270.296 11.624 269.96 11.784C269.64 11.944 269.28 12.184 268.88 12.504C268.496 12.824 268.104 13.24 267.704 13.752C267.304 14.248 266.96 14.848 266.672 15.552C266.752 15.632 266.864 15.696 267.008 15.744C267.152 15.792 267.336 15.816 267.56 15.816C268.024 15.816 268.448 15.68 268.832 15.408C269.232 15.12 269.584 14.768 269.888 14.352C270.192 13.92 270.448 13.464 270.656 12.984C270.864 12.504 271.016 12.072 271.112 11.688C271.016 11.592 270.88 11.544 270.704 11.544Z" fill="#2F2F2F"/>
</svg>
